<mxfile>
    <diagram id="oWuqPXn5jVyoP8cdq-qF" name="Page-1">
        <mxGraphModel dx="1828" dy="499" grid="1" gridSize="10" guides="1" tooltips="1" connect="1" arrows="1" fold="1" page="1" pageScale="1" pageWidth="827" pageHeight="1169" background="#F1FAEE" math="0" shadow="0">
            <root>
                <mxCell id="0"/>
                <mxCell id="1" parent="0"/>
                <mxCell id="12" value="" style="ellipse;whiteSpace=wrap;html=1;fillColor=#A8DADC;strokeColor=#457B9D;fontColor=#1D3557;" vertex="1" parent="1">
                    <mxGeometry x="380" y="10" width="100" height="50" as="geometry"/>
                </mxCell>
                <mxCell id="5" value="" style="edgeStyle=orthogonalEdgeStyle;rounded=0;orthogonalLoop=1;jettySize=auto;html=1;labelBackgroundColor=#F1FAEE;strokeColor=#457B9D;fontColor=#1D3557;" edge="1" parent="1" target="4">
                    <mxGeometry relative="1" as="geometry">
                        <mxPoint x="430" y="90" as="sourcePoint"/>
                    </mxGeometry>
                </mxCell>
                <mxCell id="7" value="" style="edgeStyle=orthogonalEdgeStyle;rounded=0;orthogonalLoop=1;jettySize=auto;html=1;labelBackgroundColor=#F1FAEE;strokeColor=#457B9D;fontColor=#1D3557;" edge="1" parent="1" target="6">
                    <mxGeometry relative="1" as="geometry">
                        <mxPoint x="430" y="90" as="sourcePoint"/>
                    </mxGeometry>
                </mxCell>
                <mxCell id="22" value="" style="edgeStyle=orthogonalEdgeStyle;rounded=0;orthogonalLoop=1;jettySize=auto;html=1;fontColor=#1D3557;labelBackgroundColor=#F1FAEE;strokeColor=#457B9D;" edge="1" parent="1" source="4" target="21">
                    <mxGeometry relative="1" as="geometry"/>
                </mxCell>
                <mxCell id="4" value="" style="rounded=0;whiteSpace=wrap;html=1;fillColor=#A8DADC;strokeColor=#457B9D;fontColor=#1D3557;" vertex="1" parent="1">
                    <mxGeometry x="260" y="150" width="120" height="60" as="geometry"/>
                </mxCell>
                <mxCell id="19" value="" style="edgeStyle=orthogonalEdgeStyle;rounded=0;orthogonalLoop=1;jettySize=auto;html=1;fontColor=#1D3557;labelBackgroundColor=#F1FAEE;strokeColor=#457B9D;" edge="1" parent="1" source="6" target="18">
                    <mxGeometry relative="1" as="geometry"/>
                </mxCell>
                <mxCell id="6" value="" style="rounded=0;whiteSpace=wrap;html=1;fillColor=#A8DADC;strokeColor=#457B9D;fontColor=#1D3557;" vertex="1" parent="1">
                    <mxGeometry x="490" y="150" width="120" height="60" as="geometry"/>
                </mxCell>
                <mxCell id="10" value="1.LOGIN" style="text;html=1;strokeColor=none;fillColor=none;align=center;verticalAlign=middle;whiteSpace=wrap;rounded=0;fontColor=#1D3557;" vertex="1" parent="1">
                    <mxGeometry x="300" y="170" width="40" height="20" as="geometry"/>
                </mxCell>
                <mxCell id="11" value="2.EXIT" style="text;html=1;strokeColor=none;fillColor=none;align=center;verticalAlign=middle;whiteSpace=wrap;rounded=0;fontColor=#1D3557;" vertex="1" parent="1">
                    <mxGeometry x="530" y="170" width="40" height="20" as="geometry"/>
                </mxCell>
                <mxCell id="17" value="" style="edgeStyle=orthogonalEdgeStyle;rounded=0;orthogonalLoop=1;jettySize=auto;html=1;labelBackgroundColor=#F1FAEE;strokeColor=#457B9D;fontColor=#1D3557;" edge="1" parent="1">
                    <mxGeometry relative="1" as="geometry">
                        <mxPoint x="430" y="60" as="sourcePoint"/>
                        <mxPoint x="430" y="90" as="targetPoint"/>
                    </mxGeometry>
                </mxCell>
                <mxCell id="15" value="START" style="text;html=1;strokeColor=none;fillColor=none;align=center;verticalAlign=middle;whiteSpace=wrap;rounded=0;fontColor=#1D3557;" vertex="1" parent="1">
                    <mxGeometry x="410" y="25" width="40" height="20" as="geometry"/>
                </mxCell>
                <mxCell id="18" value="" style="ellipse;whiteSpace=wrap;html=1;rounded=0;fontColor=#1D3557;strokeColor=#457B9D;fillColor=#A8DADC;" vertex="1" parent="1">
                    <mxGeometry x="700" y="165" width="60" height="30" as="geometry"/>
                </mxCell>
                <mxCell id="20" value="END" style="text;html=1;strokeColor=none;fillColor=none;align=center;verticalAlign=middle;whiteSpace=wrap;rounded=0;fontColor=#1D3557;" vertex="1" parent="1">
                    <mxGeometry x="710" y="170" width="40" height="20" as="geometry"/>
                </mxCell>
                <mxCell id="25" value="" style="edgeStyle=orthogonalEdgeStyle;rounded=0;orthogonalLoop=1;jettySize=auto;html=1;fontColor=#1D3557;labelBackgroundColor=#F1FAEE;strokeColor=#457B9D;" edge="1" parent="1" source="21" target="24">
                    <mxGeometry relative="1" as="geometry"/>
                </mxCell>
                <mxCell id="21" value="" style="shape=parallelogram;perimeter=parallelogramPerimeter;whiteSpace=wrap;html=1;fixedSize=1;rounded=0;fontColor=#1D3557;strokeColor=#457B9D;fillColor=#A8DADC;" vertex="1" parent="1">
                    <mxGeometry x="260" y="290" width="120" height="60" as="geometry"/>
                </mxCell>
                <mxCell id="23" value="ID" style="text;html=1;strokeColor=none;fillColor=none;align=center;verticalAlign=middle;whiteSpace=wrap;rounded=0;fontColor=#1D3557;" vertex="1" parent="1">
                    <mxGeometry x="300" y="310" width="40" height="20" as="geometry"/>
                </mxCell>
                <mxCell id="27" value="" style="edgeStyle=orthogonalEdgeStyle;rounded=0;orthogonalLoop=1;jettySize=auto;html=1;fontColor=#1D3557;labelBackgroundColor=#F1FAEE;strokeColor=#457B9D;" edge="1" parent="1" source="24" target="26">
                    <mxGeometry relative="1" as="geometry"/>
                </mxCell>
                <mxCell id="30" value="" style="edgeStyle=orthogonalEdgeStyle;rounded=0;orthogonalLoop=1;jettySize=auto;html=1;fontColor=#1D3557;labelBackgroundColor=#F1FAEE;strokeColor=#457B9D;" edge="1" parent="1" source="24" target="29">
                    <mxGeometry relative="1" as="geometry"/>
                </mxCell>
                <mxCell id="24" value="ID correct?" style="rhombus;whiteSpace=wrap;html=1;rounded=0;fontColor=#1D3557;strokeColor=#457B9D;fillColor=#A8DADC;" vertex="1" parent="1">
                    <mxGeometry x="280" y="420" width="80" height="80" as="geometry"/>
                </mxCell>
                <mxCell id="26" value="" style="whiteSpace=wrap;html=1;rounded=0;fontColor=#1D3557;strokeColor=#457B9D;fillColor=#A8DADC;" vertex="1" parent="1">
                    <mxGeometry x="100" y="430" width="120" height="60" as="geometry"/>
                </mxCell>
                <mxCell id="28" value="YES" style="text;html=1;strokeColor=none;fillColor=none;align=center;verticalAlign=middle;whiteSpace=wrap;rounded=0;fontColor=#1D3557;" vertex="1" parent="1">
                    <mxGeometry x="240" y="440" width="40" height="20" as="geometry"/>
                </mxCell>
                <mxCell id="29" value="" style="whiteSpace=wrap;html=1;rounded=0;fontColor=#1D3557;strokeColor=#457B9D;fillColor=#A8DADC;" vertex="1" parent="1">
                    <mxGeometry x="420" y="430" width="120" height="60" as="geometry"/>
                </mxCell>
                <mxCell id="31" value="NO" style="text;html=1;strokeColor=none;fillColor=none;align=center;verticalAlign=middle;whiteSpace=wrap;rounded=0;fontColor=#1D3557;" vertex="1" parent="1">
                    <mxGeometry x="370" y="440" width="40" height="20" as="geometry"/>
                </mxCell>
                <mxCell id="183" value="" style="edgeStyle=orthogonalEdgeStyle;rounded=0;orthogonalLoop=1;jettySize=auto;html=1;fontColor=#1D3557;labelBackgroundColor=#F1FAEE;strokeColor=#457B9D;" edge="1" parent="1">
                    <mxGeometry relative="1" as="geometry">
                        <mxPoint x="160" y="490" as="sourcePoint"/>
                        <mxPoint x="160" y="540" as="targetPoint"/>
                    </mxGeometry>
                </mxCell>
                <mxCell id="32" value="PIN" style="text;html=1;strokeColor=none;fillColor=none;align=center;verticalAlign=middle;whiteSpace=wrap;rounded=0;fontColor=#1D3557;" vertex="1" parent="1">
                    <mxGeometry x="140" y="450" width="40" height="20" as="geometry"/>
                </mxCell>
                <mxCell id="36" style="edgeStyle=orthogonalEdgeStyle;rounded=0;orthogonalLoop=1;jettySize=auto;html=1;entryX=1;entryY=0.5;entryDx=0;entryDy=0;fontColor=#1D3557;labelBackgroundColor=#F1FAEE;strokeColor=#457B9D;" edge="1" parent="1" target="21">
                    <mxGeometry relative="1" as="geometry">
                        <mxPoint x="480" y="430" as="sourcePoint"/>
                        <Array as="points">
                            <mxPoint x="480" y="320"/>
                        </Array>
                    </mxGeometry>
                </mxCell>
                <mxCell id="33" value="RETURN" style="text;html=1;strokeColor=none;fillColor=none;align=center;verticalAlign=middle;whiteSpace=wrap;rounded=0;fontColor=#1D3557;" vertex="1" parent="1">
                    <mxGeometry x="460" y="450" width="40" height="20" as="geometry"/>
                </mxCell>
                <mxCell id="186" value="" style="edgeStyle=orthogonalEdgeStyle;rounded=0;orthogonalLoop=1;jettySize=auto;html=1;fontColor=#1D3557;labelBackgroundColor=#F1FAEE;strokeColor=#457B9D;" edge="1" parent="1" source="182" target="185">
                    <mxGeometry relative="1" as="geometry"/>
                </mxCell>
                <mxCell id="182" value="" style="rhombus;whiteSpace=wrap;html=1;fontColor=#1D3557;fillColor=#A8DADC;strokeColor=#457B9D;" vertex="1" parent="1">
                    <mxGeometry x="120" y="540" width="80" height="80" as="geometry"/>
                </mxCell>
                <mxCell id="190" value="" style="edgeStyle=orthogonalEdgeStyle;rounded=0;orthogonalLoop=1;jettySize=auto;html=1;fontColor=#1D3557;exitX=1;exitY=0.5;exitDx=0;exitDy=0;exitPerimeter=0;labelBackgroundColor=#F1FAEE;strokeColor=#457B9D;" edge="1" parent="1" source="182">
                    <mxGeometry relative="1" as="geometry">
                        <mxPoint x="210" y="580" as="sourcePoint"/>
                        <mxPoint x="270" y="580" as="targetPoint"/>
                        <Array as="points"/>
                    </mxGeometry>
                </mxCell>
                <mxCell id="184" value="Pin Correct?" style="text;html=1;strokeColor=none;fillColor=none;align=center;verticalAlign=middle;whiteSpace=wrap;rounded=0;fontColor=#1D3557;" vertex="1" parent="1">
                    <mxGeometry x="140" y="570" width="40" height="20" as="geometry"/>
                </mxCell>
                <mxCell id="185" value="" style="whiteSpace=wrap;html=1;fontColor=#1D3557;strokeColor=#457B9D;fillColor=#A8DADC;" vertex="1" parent="1">
                    <mxGeometry x="-40" y="550" width="100" height="60" as="geometry"/>
                </mxCell>
                <mxCell id="193" value="" style="edgeStyle=orthogonalEdgeStyle;curved=0;rounded=1;sketch=0;orthogonalLoop=1;jettySize=auto;html=1;fontColor=#1D3557;strokeColor=#457B9D;fillColor=#A8DADC;entryX=1;entryY=0.75;entryDx=0;entryDy=0;" edge="1" parent="1" source="189" target="26">
                    <mxGeometry relative="1" as="geometry">
                        <Array as="points">
                            <mxPoint x="320" y="540"/>
                            <mxPoint x="245" y="540"/>
                            <mxPoint x="245" y="475"/>
                        </Array>
                    </mxGeometry>
                </mxCell>
                <mxCell id="196" value="" style="edgeStyle=orthogonalEdgeStyle;curved=0;rounded=1;sketch=0;orthogonalLoop=1;jettySize=auto;html=1;fontColor=#1D3557;strokeColor=#457B9D;fillColor=#A8DADC;" edge="1" parent="1" source="189" target="195">
                    <mxGeometry relative="1" as="geometry"/>
                </mxCell>
                <mxCell id="189" value="" style="whiteSpace=wrap;html=1;fontColor=#1D3557;fillColor=#A8DADC;strokeColor=#457B9D;" vertex="1" parent="1">
                    <mxGeometry x="270" y="550" width="100" height="60" as="geometry"/>
                </mxCell>
                <mxCell id="191" value="RETURN 3 X&lt;br&gt;" style="text;html=1;strokeColor=none;fillColor=none;align=center;verticalAlign=middle;whiteSpace=wrap;rounded=0;fontColor=#1D3557;" vertex="1" parent="1">
                    <mxGeometry x="300" y="570" width="40" height="20" as="geometry"/>
                </mxCell>
                <mxCell id="194" value="USER_MENU" style="text;html=1;strokeColor=none;fillColor=none;align=center;verticalAlign=middle;whiteSpace=wrap;rounded=0;fontColor=#1D3557;" vertex="1" parent="1">
                    <mxGeometry x="-10" y="570" width="40" height="20" as="geometry"/>
                </mxCell>
                <mxCell id="195" value="" style="ellipse;whiteSpace=wrap;html=1;fontColor=#1D3557;strokeColor=#457B9D;fillColor=#A8DADC;" vertex="1" parent="1">
                    <mxGeometry x="290" y="650" width="60" height="30" as="geometry"/>
                </mxCell>
                <mxCell id="197" value="END" style="text;html=1;strokeColor=none;fillColor=none;align=center;verticalAlign=middle;whiteSpace=wrap;rounded=0;sketch=0;fontColor=#1D3557;" vertex="1" parent="1">
                    <mxGeometry x="300" y="655" width="40" height="20" as="geometry"/>
                </mxCell>
            </root>
        </mxGraphModel>
    </diagram>
</mxfile>